<?xml version="1.0" standalone="no"?>
<!DOCTYPE svg PUBLIC "-//W3C//DTD SVG 20010904//EN"
 "http://www.w3.org/TR/2001/REC-SVG-20010904/DTD/svg10.dtd">
<svg version="1.0" xmlns="http://www.w3.org/2000/svg"
 width="497.000000pt" height="525.000000pt" viewBox="0 0 497.000000 525.000000"
 preserveAspectRatio="xMidYMid meet">

<g transform="translate(0.000000,525.000000) scale(0.100000,-0.100000)"
fill="#000000" stroke="none">
<path d="M2386 4739 c-22 -16 -48 -32 -60 -35 -12 -4 -24 -12 -28 -18 -6 -8
-8 -7 -8 2 0 7 -13 12 -32 12 -18 0 -28 -4 -22 -8 6 -4 14 -16 18 -26 8 -22
-8 -36 -41 -36 -13 0 -23 -4 -23 -10 0 -5 10 -11 23 -11 17 -1 18 -2 4 -6 -13
-3 -17 -12 -15 -31 2 -21 9 -28 30 -30 23 -3 36 8 90 74 77 94 113 143 107
148 -2 3 -22 -9 -43 -25z"/>
<path d="M2835 4709 c-16 -10 -54 -27 -83 -36 -34 -11 -48 -20 -40 -25 10 -6
10 -8 1 -8 -29 0 -10 -20 20 -21 32 0 32 0 7 -11 -25 -11 -25 -11 -2 -15 25
-5 30 -23 6 -23 -8 0 -12 -4 -9 -10 3 -5 17 -10 30 -10 29 0 43 -18 21 -26
-27 -10 -18 -24 17 -24 26 -1 29 -2 15 -11 -28 -16 -21 -29 15 -30 32 0 32 0
7 -11 l-25 -11 30 -7 c25 -6 27 -8 13 -14 -25 -11 -22 -26 5 -27 13 0 16 -3 8
-6 -10 -4 -8 -9 10 -19 l24 -13 -25 -10 -25 -10 30 -1 c17 0 25 -4 19 -8 -13
-9 -14 -42 -1 -42 5 0 4 -7 -3 -15 -10 -12 -10 -15 0 -15 7 0 10 -7 7 -14 -4
-9 2 -17 14 -21 20 -7 20 -7 2 -21 -17 -13 -17 -13 5 -14 26 0 29 -15 5 -29
-16 -9 -15 -10 7 -11 l25 -1 -25 -14 -25 -13 28 -7 c21 -6 25 -10 17 -20 -8
-9 -6 -14 6 -19 13 -5 14 -9 4 -21 -10 -12 -9 -16 4 -21 15 -6 15 -8 -1 -20
-11 -8 -13 -13 -5 -14 18 0 15 -18 -5 -23 -16 -4 -16 -5 1 -6 15 -1 17 -6 11
-28 -4 -16 -7 -36 -7 -45 0 -10 -6 -18 -16 -18 -14 0 -13 -2 3 -13 17 -13 17
-15 -5 -30 -26 -18 -26 -18 55 -37 28 -6 61 -18 73 -26 13 -9 25 -14 27 -12 3
3 -16 145 -40 298 -9 52 -24 127 -35 165 -110 403 -145 516 -159 514 -3 0 -19
-9 -36 -20z"/>
<path d="M2150 4706 c0 -18 37 -27 44 -11 2 7 -2 16 -10 19 -24 9 -34 7 -34
-8z"/>
<path d="M1794 4615 c11 -8 25 -15 30 -15 6 0 2 7 -8 15 -11 8 -25 15 -30 15
-6 0 -2 -7 8 -15z"/>
<path d="M2570 4513 c0 -51 0 -52 -32 -55 l-33 -3 -2 -457 c-1 -270 2 -458 7
-458 13 0 98 58 146 99 23 20 60 48 83 63 40 27 41 28 35 75 -12 109 -35 272
-45 323 -15 73 -92 313 -129 397 l-29 68 -1 -52z"/>
<path d="M3256 4551 c13 -13 72 -47 129 -76 50 -25 42 -34 -12 -15 l-28 10 30
-25 30 -26 -30 6 c-18 4 -25 3 -18 -2 19 -14 12 -53 -10 -53 -16 0 -17 -3 -7
-15 10 -11 9 -18 -3 -30 -9 -8 -24 -15 -34 -15 -17 -1 -17 -1 0 -14 9 -7 17
-16 17 -19 0 -6 -63 12 -104 28 -14 6 -17 5 -12 -4 6 -8 -2 -7 -22 3 -17 9
-34 16 -38 16 -13 0 4 -82 21 -100 17 -19 153 -95 169 -95 5 0 11 18 13 40 6
61 32 153 64 229 16 37 29 72 29 76 0 4 -21 15 -47 25 -27 9 -67 28 -90 41
-42 24 -65 31 -47 15z"/>
<path d="M3250 4517 c0 -3 12 -12 26 -22 15 -9 23 -12 20 -6 -7 11 -46 35 -46
28z"/>
<path d="M1790 4500 c8 -5 20 -10 25 -10 6 0 3 5 -5 10 -8 5 -19 10 -25 10 -5
0 -3 -5 5 -10z"/>
<path d="M1926 4413 c25 -49 52 -95 60 -104 9 -10 11 -18 5 -20 -6 -3 4 -43
26 -99 37 -99 55 -188 34 -176 -6 4 -11 18 -11 31 0 28 -90 234 -119 271 -11
14 -18 30 -16 34 6 10 -43 50 -61 50 -8 0 -14 -4 -14 -10 0 -5 3 -10 8 -9 15
2 52 -14 52 -22 0 -13 -24 -11 -38 3 -9 9 -12 9 -12 0 0 -6 14 -21 30 -34 17
-12 38 -33 47 -47 l16 -26 -26 18 c-14 9 -34 17 -44 17 -15 -1 -14 -4 7 -21
59 -48 72 -61 66 -66 -3 -3 -24 6 -46 21 -23 15 -51 26 -62 24 -17 -2 -12 -9
28 -35 27 -17 60 -43 74 -58 l25 -27 -55 28 c-113 59 -115 55 -7 -21 37 -26
66 -50 63 -52 -3 -3 -35 11 -72 31 -36 20 -68 35 -70 33 -6 -5 66 -61 103 -80
42 -22 53 -40 16 -26 -15 6 -44 19 -63 31 l-35 20 41 -38 c22 -22 58 -49 80
-61 l39 -22 -35 6 c-47 9 -114 64 -215 175 -187 209 -262 266 -335 254 -36 -6
-100 -35 -100 -46 0 -3 28 -16 63 -30 34 -13 78 -35 97 -49 38 -28 52 -37 122
-78 29 -17 48 -35 48 -46 0 -10 14 -26 30 -35 17 -9 32 -24 35 -32 3 -8 27
-37 55 -64 27 -27 50 -53 50 -58 0 -17 83 -96 97 -91 9 4 11 0 6 -13 -5 -14
-3 -16 11 -11 12 5 33 -5 63 -28 25 -19 49 -35 53 -35 4 0 10 -7 14 -15 9 -24
-9 -18 -58 20 -55 42 -69 45 -35 9 l24 -27 -22 6 c-46 11 -23 -22 27 -38 61
-20 77 -39 26 -30 -40 8 -90 -1 -82 -14 3 -5 19 -11 36 -14 18 -4 30 -13 30
-23 0 -8 25 -41 56 -72 30 -32 65 -74 76 -94 12 -21 26 -38 31 -38 15 0 1 76
-22 121 -23 43 -21 59 8 59 9 0 22 5 28 11 8 8 20 -9 43 -60 46 -100 69 -91
34 13 -13 38 -14 53 -5 74 26 57 4 219 -42 308 -8 16 -29 66 -47 112 -17 45
-39 86 -49 91 -10 6 -23 32 -30 64 -10 48 -38 110 -61 141 -46 59 -84 95 -90
86 -5 -7 -11 -6 -20 5 -32 39 -25 7 16 -72z m-39 -477 c9 -5 11 -2 6 11 -6 17
-5 17 13 2 10 -9 30 -25 44 -37 86 -70 87 -74 5 -32 -83 43 -115 66 -115 83 0
6 8 3 18 -5 9 -8 23 -18 29 -22z m113 -6 c18 -12 2 -12 -25 0 -13 6 -15 9 -5
9 8 0 22 -4 30 -9z m168 -225 c-3 -3 -9 2 -12 12 -6 14 -5 15 5 6 7 -7 10 -15
7 -18z"/>
<path d="M1800 4456 c0 -4 68 -46 76 -46 16 0 -2 20 -30 34 -34 16 -46 19 -46
12z"/>
<path d="M1780 4306 c0 -2 7 -7 16 -10 8 -3 12 -2 9 4 -6 10 -25 14 -25 6z"/>
<path d="M3884 4214 c-66 -42 -157 -105 -203 -140 -46 -35 -89 -64 -96 -64 -8
0 -17 12 -22 27 -9 26 -10 25 -89 -67 -109 -130 -227 -263 -302 -340 -87 -89
-88 -92 -52 -129 l30 -29 0 -146 c0 -135 7 -174 27 -144 4 7 10 70 11 141 2
70 6 127 9 127 7 0 125 -106 233 -211 257 -247 269 -220 32 77 -85 107 -101
131 -84 120 8 -5 129 -154 230 -283 9 -12 20 -22 23 -23 8 0 35 61 57 130 13
42 22 54 35 52 11 -2 17 4 17 17 0 43 61 209 106 288 25 45 73 111 105 148 32
36 59 71 59 78 0 7 -7 32 -16 56 -8 25 -13 54 -10 66 9 37 -15 58 -62 53 l-41
-3 20 30 c25 39 104 193 113 223 4 12 3 22 -2 22 -5 0 -63 -34 -128 -76z
m-514 -679 c13 -14 21 -25 18 -25 -2 0 -15 11 -28 25 -13 14 -21 25 -18 25 2
0 15 -11 28 -25z m220 -51 c0 -8 -5 -12 -10 -9 -6 4 -8 11 -5 16 9 14 15 11
15 -7z m-230 -25 c0 -6 -4 -7 -10 -4 -5 3 -10 11 -10 16 0 6 5 7 10 4 6 -3 10
-11 10 -16z m65 11 c3 -5 1 -10 -4 -10 -6 0 -11 5 -11 10 0 6 2 10 4 10 3 0 8
-4 11 -10z m189 -146 c3 -16 8 -58 11 -94 l5 -65 -19 25 c-11 13 -16 29 -12
35 18 23 9 91 -20 148 -16 32 -29 61 -29 64 0 16 58 -87 64 -113z m-74 46 c6
-11 8 -20 6 -20 -3 0 -10 9 -16 20 -6 11 -8 20 -6 20 3 0 10 -9 16 -20z"/>
<path d="M3191 4017 c-10 -18 -9 -28 2 -50 l14 -27 18 26 c14 22 15 30 4 50
-16 30 -22 30 -38 1z"/>
<path d="M1698 3680 c-51 -15 -153 -78 -193 -119 -21 -23 -44 -41 -50 -41 -5
0 -45 14 -88 30 -120 47 -498 133 -514 117 -9 -10 61 -34 208 -72 305 -78 433
-176 417 -319 -3 -25 -3 -46 -1 -46 3 0 38 30 78 68 40 37 109 89 154 115 98
58 132 99 139 167 4 44 2 52 -26 80 -32 31 -67 37 -124 20z"/>
<path d="M2867 3536 c-10 -24 -25 -47 -33 -50 -20 -8 -17 -24 5 -31 11 -3 27
-22 36 -41 l17 -35 17 33 c9 18 23 42 30 53 12 18 10 26 -13 59 -14 21 -26 43
-26 47 0 23 -17 5 -33 -35z"/>
<path d="M640 3455 c0 -8 4 -15 10 -15 5 0 7 7 4 15 -4 8 -8 15 -10 15 -2 0
-4 -7 -4 -15z"/>
<path d="M3960 3453 c0 -13 -9 -32 -20 -43 -19 -19 -19 -20 6 -45 l25 -26 30
32 c32 34 36 49 15 49 -8 0 -24 12 -35 28 -20 26 -20 26 -21 5z"/>
<path d="M2245 3380 c-93 -39 -186 -75 -205 -81 -19 -6 -48 -17 -65 -24 -16
-7 -88 -34 -160 -60 -71 -25 -149 -57 -171 -71 -87 -50 -120 -120 -111 -235 7
-84 27 -130 72 -172 l36 -33 -20 -44 c-53 -117 5 -297 110 -341 16 -6 29 -14
29 -18 0 -3 -30 -15 -67 -25 -277 -77 -354 -153 -340 -338 7 -83 33 -156 70
-196 26 -29 90 -58 257 -118 69 -25 242 -92 385 -149 304 -121 421 -158 462
-146 80 25 751 282 853 328 102 46 134 51 112 16 -15 -23 -356 -164 -782 -323
-107 -41 -201 -79 -209 -86 -16 -14 -7 -50 16 -58 21 -8 166 43 708 250 207
79 320 131 337 155 26 35 27 105 1 130 -11 12 -44 23 -81 29 -52 9 -66 8 -87
-6 -13 -9 -30 -14 -37 -11 -8 3 -1 10 17 17 l30 13 -2 101 c-1 87 -4 101 -19
105 -9 1 -65 -13 -123 -32 -58 -20 -162 -54 -231 -76 -69 -22 -198 -69 -287
-104 -89 -36 -175 -68 -192 -72 -16 -3 -31 -12 -34 -18 -2 -7 -3 -70 -2 -140
1 -96 -2 -130 -12 -139 -16 -13 -90 13 -508 174 -143 55 -304 115 -358 135
-108 39 -137 66 -144 132 -4 36 -10 251 -7 251 6 0 257 -89 394 -140 91 -34
203 -75 250 -91 119 -43 264 -97 336 -126 l61 -24 104 37 c151 54 482 168 644
223 l140 48 0 81 c-1 66 -5 87 -21 109 -24 33 -98 75 -172 98 -59 19 -64 38
-11 43 45 4 59 25 59 87 0 59 -15 79 -77 100 -24 8 -32 15 -23 18 8 3 53 18
100 33 46 16 98 41 116 56 58 51 94 169 79 264 -5 38 -16 56 -54 94 -26 26
-60 50 -76 54 -35 8 -228 94 -465 206 -254 120 -396 180 -427 179 -15 0 -104
-31 -198 -69z m391 -147 c32 -17 103 -49 157 -73 53 -23 97 -46 97 -52 0 -5
-17 -16 -37 -24 -21 -9 -51 -22 -68 -29 -234 -102 -239 -103 -357 -47 -70 33
-143 67 -231 106 -52 23 -69 46 -33 46 12 0 223 78 305 113 40 17 64 11 167
-40z m-798 -227 c276 -109 580 -238 669 -284 l51 -26 79 24 c43 13 95 32 115
42 45 22 48 22 48 3 0 -9 -9 -15 -24 -15 -14 0 -28 -4 -31 -10 -3 -5 -16 -10
-28 -10 -12 -1 -46 -11 -76 -23 -44 -18 -56 -29 -63 -52 -12 -42 -20 -245 -10
-245 5 0 35 13 68 29 33 16 76 33 95 39 19 5 42 13 52 17 15 6 18 4 15 -15 -2
-18 -26 -33 -123 -76 -66 -29 -128 -54 -138 -54 -10 0 -93 35 -185 79 -196 92
-260 122 -345 157 -34 14 -100 45 -147 68 -47 24 -109 51 -137 61 -48 17 -70
35 -43 35 13 0 13 37 0 45 -6 4 -8 15 -5 25 4 14 -2 23 -24 35 -38 19 -39 24
-6 17 31 -5 32 4 3 30 l-23 20 23 -5 c29 -7 28 -2 -10 32 l-33 29 30 -6 c27
-5 29 -4 16 12 -13 16 -12 17 15 11 29 -6 29 -6 5 8 -22 13 -22 14 -5 22 18 7
18 7 -1 15 -12 5 -28 3 -42 -6 -32 -20 -39 -17 -18 6 30 33 83 25 233 -34z
m-254 -45 c-13 -25 -12 -33 6 -74 11 -25 25 -49 30 -52 15 -9 12 -57 -2 -53
-17 6 -57 107 -58 146 0 37 16 75 30 67 4 -3 2 -18 -6 -34z m1786 -41 c18 -84
10 -195 -16 -220 -11 -11 -74 -41 -140 -66 -65 -25 -140 -56 -166 -69 -54 -28
-68 -31 -68 -12 0 7 21 20 48 29 122 42 289 111 307 129 18 17 20 32 19 130
-1 61 -6 115 -11 120 -6 6 -66 -14 -159 -50 -82 -32 -160 -62 -174 -66 -24 -6
-24 -5 -6 9 16 13 261 113 316 129 28 8 37 -4 50 -63z m-383 -312 c-3 -8 -6
-5 -6 6 -1 11 2 17 5 13 3 -3 4 -12 1 -19z m-1004 -109 c95 -45 209 -100 255
-122 45 -21 128 -58 184 -81 l102 -41 2 -82 c1 -44 4 -85 8 -91 3 -5 0 -14 -7
-20 -14 -12 -95 19 -377 143 -96 43 -218 95 -270 117 -52 22 -100 45 -106 51
-30 31 -56 180 -37 211 11 18 80 -6 246 -85z m797 71 c-8 -5 -17 -7 -19 -4 -3
3 1 9 9 14 8 5 17 7 19 4 3 -3 -1 -9 -9 -14z m-60 -25 c-46 -18 -64 -17 -25 0
17 8 37 14 45 14 8 0 -1 -7 -20 -14z m575 -315 c6 -10 -149 -90 -355 -184 -58
-27 -167 -77 -242 -112 -135 -63 -183 -79 -143 -48 11 9 119 65 240 124 121
59 276 135 345 169 128 63 144 68 155 51z m-1595 -150 c91 -32 282 -102 425
-155 143 -53 280 -104 305 -113 24 -8 40 -17 35 -19 -6 -2 -85 24 -175 58 -91
34 -311 113 -490 176 -179 63 -327 117 -330 120 -12 12 76 -13 230 -67z m1585
-360 c-88 -41 -122 -46 -40 -5 39 19 77 34 85 34 8 0 -12 -13 -45 -29z m-220
-90 c-27 -12 -43 -12 -25 0 8 5 22 9 30 9 10 0 8 -3 -5 -9z m-390 -140 c-3 -5
-12 -10 -18 -10 -7 0 -38 -11 -69 -24 -32 -13 -58 -20 -58 -16 0 6 122 57 143
59 5 1 5 -3 2 -9z"/>
<path d="M2480 3233 c-159 -58 -236 -87 -243 -93 -4 -4 27 -21 70 -39 43 -18
112 -50 153 -72 l75 -39 143 57 c78 32 142 61 142 65 0 3 -10 10 -22 14 -13 3
-76 31 -141 60 -112 51 -143 59 -177 47z"/>
<path d="M1050 3218 c-62 -30 -141 -112 -173 -178 -15 -31 -30 -82 -33 -117
-8 -71 -25 -83 -44 -30 -10 29 -12 31 -24 14 -12 -16 -14 -14 -20 15 -5 24 -9
29 -15 19 -12 -19 -31 -4 -31 25 0 33 -18 31 -22 -3 l-4 -28 -16 35 c-9 19
-17 29 -17 23 -1 -18 -21 -16 -21 2 0 23 -17 18 -25 -7 -7 -21 -8 -20 -12 10
-4 28 -23 47 -23 22 0 -18 -22 -10 -27 10 -6 23 -19 26 -26 8 -4 -10 -6 -10
-6 0 -1 6 -8 12 -16 12 -8 0 -15 7 -15 16 0 14 -2 14 -16 -1 -15 -14 -17 -14
-30 2 -12 17 -13 16 -14 -5 0 -27 17 -62 39 -79 29 -23 295 -180 356 -211 101
-50 102 -50 107 5 7 73 45 124 153 203 105 77 124 100 131 156 l4 39 -16 -43
c-20 -55 -66 -80 -116 -66 -24 7 -34 16 -36 34 -3 20 -1 23 9 13 19 -19 63
-16 81 5 28 31 32 78 9 101 -26 26 -35 26 -91 -1z"/>
<path d="M4136 2915 c-14 -21 -14 -25 -2 -25 9 0 16 -12 18 -27 l3 -28 19 28
c15 23 17 32 8 52 -15 32 -25 31 -46 0z"/>
<path d="M1295 2730 l7 -35 -26 24 c-28 26 -33 22 -15 -11 10 -18 9 -20 -5
-15 -10 4 -16 1 -16 -9 0 -11 -6 -13 -20 -9 -15 5 -20 2 -20 -11 0 -14 -4 -13
-21 7 l-21 24 8 -30 7 -30 -23 20 -23 20 5 -22 c4 -13 2 -23 -3 -23 -5 0 -9 4
-9 9 0 5 -7 12 -16 15 -13 5 -15 1 -9 -21 l6 -27 -22 19 -22 20 5 -27 c7 -36
2 -35 -22 5 -24 39 -25 31 -4 -55 13 -54 15 -79 6 -120 -5 -29 -9 -54 -7 -56
1 -1 34 13 72 31 39 19 112 47 163 63 l92 29 -7 55 c-9 78 -35 167 -53 182
-13 11 -14 8 -7 -22z"/>
<path d="M3700 2700 c8 -5 20 -10 25 -10 6 0 3 5 -5 10 -8 5 -19 10 -25 10 -5
0 -3 -5 5 -10z"/>
<path d="M3671 2669 c19 -16 20 -19 6 -15 -58 19 -65 18 -72 -6 -5 -12 -16
-29 -26 -36 -11 -7 -19 -17 -19 -22 0 -4 30 -25 67 -46 37 -21 110 -64 161
-97 52 -32 95 -57 97 -55 2 2 5 55 6 118 l2 115 -44 22 c-24 12 -50 22 -56 23
-19 0 -15 -20 5 -26 36 -12 83 -36 79 -40 -5 -5 -95 29 -162 62 -62 29 -75 31
-44 3z"/>
<path d="M1476 2623 c-22 -65 -21 -73 13 -73 38 0 42 7 34 69 -7 65 -26 66
-47 4z"/>
<path d="M4085 2614 c22 -53 26 -111 13 -176 l-14 -67 37 -6 c20 -4 45 -16 56
-27 17 -20 17 -21 1 -15 -25 9 -22 -1 5 -24 29 -25 32 -24 58 12 45 64 43 156
-5 222 -22 30 -96 80 -135 92 -21 6 -23 5 -16 -11z"/>
<path d="M671 2531 c-6 -11 -18 -27 -27 -36 -15 -15 -15 -17 0 -33 9 -9 23
-25 30 -36 12 -17 14 -16 34 18 20 33 20 39 7 52 -8 9 -15 22 -15 29 0 23 -18
27 -29 6z"/>
<path d="M1435 2455 c-340 -117 -639 -348 -776 -602 -19 -35 -40 -63 -47 -63
-23 0 -143 72 -231 138 -82 62 -111 71 -111 35 0 -63 66 -290 122 -417 21 -49
37 -90 35 -93 -3 -2 -52 -15 -110 -29 -171 -41 -180 -68 -38 -116 178 -59 297
-130 551 -328 406 -315 652 -447 1035 -555 354 -99 743 -111 1127 -34 373 75
752 275 1103 584 203 179 345 264 573 346 104 37 92 66 -38 95 -41 10 -81 17
-87 17 -19 0 -17 8 33 119 56 125 79 189 103 288 41 163 36 181 -31 128 -65
-52 -407 -248 -432 -248 -6 0 -42 47 -79 105 -134 204 -276 344 -492 487 -119
78 -320 187 -328 178 -3 -3 -6 -37 -8 -77 l-4 -72 55 -28 c40 -21 63 -42 85
-78 l30 -49 0 -180 0 -180 42 -8 c53 -9 79 -23 94 -50 39 -73 28 -133 -39
-198 -42 -40 -75 -56 -302 -147 -326 -131 -701 -263 -744 -263 -19 0 -94 22
-168 49 -198 72 -286 99 -353 110 -92 14 -503 167 -628 234 -76 40 -124 96
-133 154 -8 57 5 105 34 118 19 8 21 15 15 40 -5 16 -7 62 -6 101 5 175 98
282 287 330 36 9 66 20 66 24 0 4 -9 15 -19 24 -11 10 -32 47 -48 82 -15 35
-30 64 -33 64 -3 -1 -50 -16 -105 -35z m-301 -491 c8 -20 -11 -54 -29 -54 -16
0 -31 43 -20 59 10 16 42 13 49 -5z m2570 10 c21 -8 21 -50 0 -58 -32 -12 -57
27 -32 52 14 14 12 14 32 6z m569 -490 c11 -11 -5 -34 -23 -34 -22 0 -34 15
-25 30 7 11 38 14 48 4z m-3505 -27 c4 -22 -24 -33 -43 -17 -12 10 -13 16 -4
27 16 18 43 13 47 -10z m305 -33 c53 -33 67 -51 67 -87 0 -31 -47 -87 -74 -87
-21 0 -27 -29 -17 -83 5 -26 5 -49 1 -52 -4 -3 -19 5 -34 16 -23 18 -26 28
-26 80 0 67 -13 75 -37 24 -18 -38 -29 -42 -57 -22 -17 12 -14 20 42 105 34
51 64 101 67 112 8 26 17 25 68 -6z m2805 -62 c18 -26 52 -69 76 -97 34 -38
48 -48 59 -40 8 6 27 19 42 29 27 20 54 15 62 -11 5 -15 -125 -113 -140 -107
-7 3 -50 57 -96 120 -80 111 -83 116 -65 135 9 10 20 19 23 19 3 0 21 -21 39
-48z m-138 -73 c-53 -41 -52 -38 -29 -70 20 -29 22 -29 40 -13 40 36 67 -11
29 -51 -20 -21 -20 -23 -2 -45 l18 -23 41 24 c35 20 43 21 57 10 9 -7 16 -17
16 -21 0 -10 -123 -90 -137 -90 -6 0 -32 39 -59 86 -26 47 -61 98 -77 114 -16
16 -27 34 -25 41 2 7 31 30 64 50 52 32 61 35 74 22 13 -13 12 -17 -10 -34z
m-2445 7 c64 -27 74 -36 51 -55 -11 -9 -22 -9 -52 4 -44 18 -64 14 -64 -13 0
-12 11 -24 30 -32 32 -13 35 -17 20 -40 -7 -12 -14 -12 -43 -2 -18 7 -36 12
-39 12 -11 0 -31 -74 -22 -77 53 -18 97 -73 59 -73 -14 0 -91 36 -123 58 -10
7 3 36 53 125 36 65 67 117 68 117 1 0 29 -11 62 -24z m145 -79 c0 -7 -16 -51
-35 -97 -19 -46 -35 -90 -35 -97 0 -7 23 -24 50 -38 45 -23 60 -42 44 -57 -7
-8 -159 58 -159 69 0 4 23 58 50 120 36 81 55 112 68 113 9 0 17 -6 17 -13z
m2139 -11 c63 -33 59 -96 -10 -156 l-40 -35 15 -42 c14 -40 14 -43 -4 -53 -10
-5 -21 -10 -23 -10 -3 0 -21 34 -40 75 -20 41 -50 95 -66 119 -17 25 -31 47
-31 51 0 10 123 63 148 64 13 1 35 -5 51 -13z m-1904 -204 c-4 -76 -8 -143
-11 -150 -6 -21 -44 5 -44 31 0 16 -9 26 -30 34 -26 10 -32 9 -40 -8 -13 -23
-38 -25 -46 -4 -7 18 5 38 93 157 36 49 69 85 74 82 6 -3 8 -60 4 -142z m1681
7 c55 -60 100 -114 102 -119 2 -4 -11 -11 -28 -15 -24 -5 -34 -3 -44 10 -11
15 -17 15 -54 5 -29 -9 -42 -19 -44 -34 -2 -13 -12 -22 -25 -24 -23 -3 -23 -3
-23 142 0 80 4 146 9 146 5 0 53 -50 107 -111z m-1526 78 c59 -19 75 -28 75
-43 0 -16 -6 -19 -36 -16 l-36 2 -21 -94 c-12 -52 -22 -102 -22 -110 0 -17
-35 -22 -44 -7 -3 5 5 54 19 109 29 117 29 122 12 122 -24 0 -51 26 -44 44 8
20 7 20 97 -7z m1357 -39 c46 -43 17 -125 -58 -164 -24 -12 -28 -19 -23 -40
13 -50 10 -59 -16 -59 -23 0 -27 8 -57 115 -17 63 -32 123 -32 132 -1 12 11
20 42 26 75 17 119 14 144 -10z m-1129 -31 c34 -36 43 -80 28 -136 -23 -88
-66 -129 -121 -115 -39 10 -58 40 -63 98 -5 68 11 118 49 151 38 31 79 32 107
2z m772 -17 c0 -14 -10 -22 -32 -28 -26 -6 -33 -14 -33 -33 0 -19 6 -25 28
-27 36 -4 37 -39 1 -52 -21 -8 -25 -15 -20 -33 3 -12 6 -27 6 -34 0 -6 17 -13
38 -15 29 -2 38 -8 40 -25 3 -19 -2 -21 -58 -25 -34 -1 -65 2 -69 7 -4 6 -9
33 -10 60 -1 28 -9 83 -17 124 -9 40 -13 76 -9 79 6 6 74 19 113 21 16 1 22
-5 22 -19z m-564 -5 c11 -27 -3 -47 -24 -36 -14 7 -24 6 -37 -3 -17 -12 -15
-16 24 -65 47 -60 52 -94 20 -135 -15 -19 -30 -26 -55 -26 -45 0 -74 15 -74
39 0 27 10 32 34 16 28 -20 53 -19 66 4 8 16 2 29 -35 72 -51 59 -56 91 -23
126 26 27 95 33 104 8z m347 -35 c31 -36 43 -111 28 -168 -16 -56 -51 -82
-112 -82 l-49 0 0 140 0 140 54 0 c48 0 57 -4 79 -30z"/>
<path d="M1096 1951 c-4 -5 -2 -12 3 -15 5 -4 12 -2 15 3 4 5 2 12 -3 15 -5 4
-12 2 -15 -3z"/>
<path d="M3680 1945 c0 -9 5 -15 11 -13 6 2 11 8 11 13 0 5 -5 11 -11 13 -6 2
-11 -4 -11 -13z"/>
<path d="M1009 1349 c-16 -31 14 -49 55 -33 21 8 20 24 -1 40 -26 19 -41 17
-54 -7z"/>
<path d="M3476 1142 c-7 -12 22 -52 38 -52 8 0 19 7 26 15 10 12 10 18 0 30
-13 16 -55 20 -64 7z"/>
<path d="M1600 1005 c-14 -17 -5 -48 13 -43 14 5 23 58 9 58 -5 0 -15 -7 -22
-15z"/>
<path d="M3290 967 c0 -20 5 -27 20 -27 11 0 20 4 20 8 0 5 -9 17 -20 27 -20
18 -20 17 -20 -8z"/>
<path d="M3080 981 c0 -36 13 -46 40 -31 31 17 23 54 -12 58 -25 3 -28 0 -28
-27z"/>
<path d="M1974 969 c-25 -28 -33 -139 -10 -158 13 -11 19 -11 33 0 23 20 43
72 43 117 0 60 -31 80 -66 41z"/>
<path d="M2534 854 c3 -48 9 -90 12 -93 3 -3 13 -1 22 5 46 29 33 165 -17 172
l-24 4 7 -88z"/>
<path d="M792 2358 c-17 -17 -15 -46 7 -74 18 -22 19 -23 35 -5 20 22 20 40 0
69 -17 25 -25 27 -42 10z"/>
<path d="M4165 2260 c3 -5 11 -10 16 -10 6 0 7 5 4 10 -3 6 -11 10 -16 10 -6
0 -7 -4 -4 -10z"/>
<path d="M1291 1760 c-19 -57 17 -120 94 -163 56 -32 175 -78 184 -73 4 3 5
24 2 48 -6 42 -8 44 -84 83 -43 22 -100 61 -128 88 -27 26 -52 47 -53 47 -2 0
-9 -13 -15 -30z"/>
<path d="M1644 1555 c-10 -25 5 -65 29 -75 267 -109 337 -128 337 -95 0 12
-328 185 -352 185 -5 0 -11 -7 -14 -15z"/>
</g>
</svg>
